<mxfile host="app.diagrams.net" modified="2024-04-21T19:02:13.613Z" agent="Mozilla/5.0 (Windows NT 10.0; Win64; x64) AppleWebKit/537.36 (KHTML, like Gecko) Chrome/123.0.0.0 Safari/537.36" etag="slON8n9P69ZM5IqCU4ug" version="24.2.7" type="device">
  <diagram name="Page-1" id="-y3Bae4tI20VExq_1qtj">
    <mxGraphModel dx="1215" dy="647" grid="1" gridSize="10" guides="1" tooltips="1" connect="1" arrows="1" fold="1" page="1" pageScale="1" pageWidth="827" pageHeight="1169" math="0" shadow="0">
      <root>
        <mxCell id="0" />
        <mxCell id="1" parent="0" />
        <mxCell id="lA94gcOte_OkTWc4to1x-2" value="" style="rounded=0;whiteSpace=wrap;html=1;" parent="1" vertex="1">
          <mxGeometry x="20" y="604.85" width="330" height="280" as="geometry" />
        </mxCell>
        <mxCell id="9tDPQ-F5tBuBTvyauGK9-59" value="" style="rounded=0;whiteSpace=wrap;html=1;" parent="1" vertex="1">
          <mxGeometry x="30" y="684.85" width="310" height="190" as="geometry" />
        </mxCell>
        <mxCell id="9tDPQ-F5tBuBTvyauGK9-55" value="" style="rounded=0;whiteSpace=wrap;html=1;" parent="1" vertex="1">
          <mxGeometry x="190" y="714.85" width="140" height="60" as="geometry" />
        </mxCell>
        <mxCell id="9tDPQ-F5tBuBTvyauGK9-57" style="edgeStyle=orthogonalEdgeStyle;rounded=0;orthogonalLoop=1;jettySize=auto;html=1;exitX=0;exitY=0.5;exitDx=0;exitDy=0;" parent="1" source="9tDPQ-F5tBuBTvyauGK9-44" edge="1">
          <mxGeometry relative="1" as="geometry">
            <mxPoint x="140" y="814.7388888888889" as="targetPoint" />
          </mxGeometry>
        </mxCell>
        <mxCell id="9tDPQ-F5tBuBTvyauGK9-44" value="" style="rounded=0;whiteSpace=wrap;html=1;" parent="1" vertex="1">
          <mxGeometry x="190" y="784.85" width="140" height="60" as="geometry" />
        </mxCell>
        <mxCell id="9tDPQ-F5tBuBTvyauGK9-21" value="" style="rounded=0;whiteSpace=wrap;html=1;" parent="1" vertex="1">
          <mxGeometry x="490" y="464.85" width="140" height="60" as="geometry" />
        </mxCell>
        <mxCell id="9tDPQ-F5tBuBTvyauGK9-1" value="Actor" style="shape=umlActor;verticalLabelPosition=bottom;verticalAlign=top;html=1;outlineConnect=0;" parent="1" vertex="1">
          <mxGeometry x="40" y="354.85" width="80" height="150" as="geometry" />
        </mxCell>
        <mxCell id="9tDPQ-F5tBuBTvyauGK9-9" value="" style="rounded=0;whiteSpace=wrap;html=1;" parent="1" vertex="1">
          <mxGeometry x="180" y="314.85" width="160" height="215.15" as="geometry" />
        </mxCell>
        <mxCell id="cdbhqoS1kuBSXF2WR8cu-3" style="edgeStyle=orthogonalEdgeStyle;rounded=0;orthogonalLoop=1;jettySize=auto;html=1;exitX=1;exitY=0.5;exitDx=0;exitDy=0;entryX=0;entryY=0.5;entryDx=0;entryDy=0;" edge="1" parent="1" source="9tDPQ-F5tBuBTvyauGK9-2" target="9tDPQ-F5tBuBTvyauGK9-12">
          <mxGeometry relative="1" as="geometry">
            <Array as="points">
              <mxPoint x="390" y="395" />
              <mxPoint x="390" y="365" />
            </Array>
          </mxGeometry>
        </mxCell>
        <mxCell id="9tDPQ-F5tBuBTvyauGK9-2" value="Face" style="rounded=1;whiteSpace=wrap;html=1;" parent="1" vertex="1">
          <mxGeometry x="200" y="374.85" width="120" height="40" as="geometry" />
        </mxCell>
        <mxCell id="9tDPQ-F5tBuBTvyauGK9-29" style="edgeStyle=orthogonalEdgeStyle;rounded=0;orthogonalLoop=1;jettySize=auto;html=1;exitX=1;exitY=0.5;exitDx=0;exitDy=0;entryX=0;entryY=0.5;entryDx=0;entryDy=0;" parent="1" source="9tDPQ-F5tBuBTvyauGK9-4" target="9tDPQ-F5tBuBTvyauGK9-28" edge="1">
          <mxGeometry relative="1" as="geometry">
            <Array as="points">
              <mxPoint x="410" y="445" />
              <mxPoint x="410" y="435" />
            </Array>
          </mxGeometry>
        </mxCell>
        <mxCell id="9tDPQ-F5tBuBTvyauGK9-4" value="Text" style="rounded=1;whiteSpace=wrap;html=1;" parent="1" vertex="1">
          <mxGeometry x="200" y="424.85" width="120" height="40" as="geometry" />
        </mxCell>
        <mxCell id="9tDPQ-F5tBuBTvyauGK9-5" value="Voice" style="rounded=1;whiteSpace=wrap;html=1;" parent="1" vertex="1">
          <mxGeometry x="200" y="474.85" width="120" height="40" as="geometry" />
        </mxCell>
        <mxCell id="9tDPQ-F5tBuBTvyauGK9-6" value="" style="endArrow=classic;html=1;rounded=0;entryX=0;entryY=0.5;entryDx=0;entryDy=0;" parent="1" source="9tDPQ-F5tBuBTvyauGK9-1" target="9tDPQ-F5tBuBTvyauGK9-2" edge="1">
          <mxGeometry width="50" height="50" relative="1" as="geometry">
            <mxPoint x="260" y="474.85" as="sourcePoint" />
            <mxPoint x="310" y="424.85" as="targetPoint" />
          </mxGeometry>
        </mxCell>
        <mxCell id="9tDPQ-F5tBuBTvyauGK9-7" value="" style="endArrow=classic;html=1;rounded=0;entryX=0;entryY=0.5;entryDx=0;entryDy=0;" parent="1" source="9tDPQ-F5tBuBTvyauGK9-1" target="9tDPQ-F5tBuBTvyauGK9-4" edge="1">
          <mxGeometry width="50" height="50" relative="1" as="geometry">
            <mxPoint x="260" y="474.85" as="sourcePoint" />
            <mxPoint x="310" y="424.85" as="targetPoint" />
          </mxGeometry>
        </mxCell>
        <mxCell id="9tDPQ-F5tBuBTvyauGK9-8" value="" style="endArrow=classic;html=1;rounded=0;entryX=0;entryY=0.5;entryDx=0;entryDy=0;" parent="1" source="9tDPQ-F5tBuBTvyauGK9-1" target="9tDPQ-F5tBuBTvyauGK9-5" edge="1">
          <mxGeometry width="50" height="50" relative="1" as="geometry">
            <mxPoint x="130" y="454.85" as="sourcePoint" />
            <mxPoint x="210" y="439.85" as="targetPoint" />
          </mxGeometry>
        </mxCell>
        <mxCell id="9tDPQ-F5tBuBTvyauGK9-10" value="WebApp Input" style="text;html=1;align=center;verticalAlign=middle;whiteSpace=wrap;rounded=0;" parent="1" vertex="1">
          <mxGeometry x="215" y="284.85" width="90" height="30" as="geometry" />
        </mxCell>
        <mxCell id="cdbhqoS1kuBSXF2WR8cu-34" style="edgeStyle=orthogonalEdgeStyle;rounded=0;orthogonalLoop=1;jettySize=auto;html=1;exitX=1;exitY=0.5;exitDx=0;exitDy=0;" edge="1" parent="1" source="9tDPQ-F5tBuBTvyauGK9-12">
          <mxGeometry relative="1" as="geometry">
            <mxPoint x="650" y="420" as="targetPoint" />
          </mxGeometry>
        </mxCell>
        <mxCell id="9tDPQ-F5tBuBTvyauGK9-12" value="" style="rounded=0;whiteSpace=wrap;html=1;" parent="1" vertex="1">
          <mxGeometry x="490" y="314.85" width="140" height="100" as="geometry" />
        </mxCell>
        <mxCell id="9tDPQ-F5tBuBTvyauGK9-13" value="Face Identification" style="rounded=1;whiteSpace=wrap;html=1;" parent="1" vertex="1">
          <mxGeometry x="500" y="320" width="120" height="40" as="geometry" />
        </mxCell>
        <mxCell id="9tDPQ-F5tBuBTvyauGK9-14" value="Face Expression" style="rounded=1;whiteSpace=wrap;html=1;" parent="1" vertex="1">
          <mxGeometry x="500" y="369.85" width="120" height="40" as="geometry" />
        </mxCell>
        <mxCell id="9tDPQ-F5tBuBTvyauGK9-16" value="DeepFace" style="text;html=1;align=center;verticalAlign=middle;whiteSpace=wrap;rounded=0;" parent="1" vertex="1">
          <mxGeometry x="530" y="284.85" width="60" height="30" as="geometry" />
        </mxCell>
        <mxCell id="cdbhqoS1kuBSXF2WR8cu-23" style="edgeStyle=orthogonalEdgeStyle;rounded=0;orthogonalLoop=1;jettySize=auto;html=1;exitX=1;exitY=0.5;exitDx=0;exitDy=0;entryX=0.5;entryY=1;entryDx=0;entryDy=0;" edge="1" parent="1" source="9tDPQ-F5tBuBTvyauGK9-19" target="9tDPQ-F5tBuBTvyauGK9-28">
          <mxGeometry relative="1" as="geometry" />
        </mxCell>
        <mxCell id="9tDPQ-F5tBuBTvyauGK9-19" value="Text" style="rounded=1;whiteSpace=wrap;html=1;" parent="1" vertex="1">
          <mxGeometry x="500" y="474.85" width="120" height="40" as="geometry" />
        </mxCell>
        <mxCell id="9tDPQ-F5tBuBTvyauGK9-20" value="" style="endArrow=classic;html=1;rounded=0;exitX=1;exitY=0.5;exitDx=0;exitDy=0;entryX=0;entryY=0.5;entryDx=0;entryDy=0;" parent="1" source="9tDPQ-F5tBuBTvyauGK9-5" target="9tDPQ-F5tBuBTvyauGK9-19" edge="1">
          <mxGeometry width="50" height="50" relative="1" as="geometry">
            <mxPoint x="390" y="474.85" as="sourcePoint" />
            <mxPoint x="440" y="424.85" as="targetPoint" />
          </mxGeometry>
        </mxCell>
        <mxCell id="9tDPQ-F5tBuBTvyauGK9-23" value="Speech_recognition" style="text;html=1;align=center;verticalAlign=middle;whiteSpace=wrap;rounded=0;" parent="1" vertex="1">
          <mxGeometry x="530" y="524.85" width="60" height="30" as="geometry" />
        </mxCell>
        <mxCell id="9tDPQ-F5tBuBTvyauGK9-33" style="edgeStyle=orthogonalEdgeStyle;rounded=0;orthogonalLoop=1;jettySize=auto;html=1;exitX=1;exitY=0.5;exitDx=0;exitDy=0;entryX=1;entryY=0.5;entryDx=0;entryDy=0;" parent="1" source="9tDPQ-F5tBuBTvyauGK9-24" target="9tDPQ-F5tBuBTvyauGK9-32" edge="1">
          <mxGeometry relative="1" as="geometry" />
        </mxCell>
        <mxCell id="9tDPQ-F5tBuBTvyauGK9-24" value="Zephyr LLM" style="triangle;whiteSpace=wrap;html=1;" parent="1" vertex="1">
          <mxGeometry x="690" y="354.85" width="140" height="160" as="geometry" />
        </mxCell>
        <mxCell id="9tDPQ-F5tBuBTvyauGK9-31" style="edgeStyle=orthogonalEdgeStyle;rounded=0;orthogonalLoop=1;jettySize=auto;html=1;exitX=1;exitY=0.5;exitDx=0;exitDy=0;entryX=0;entryY=0.5;entryDx=0;entryDy=0;" parent="1" source="9tDPQ-F5tBuBTvyauGK9-28" target="9tDPQ-F5tBuBTvyauGK9-24" edge="1">
          <mxGeometry relative="1" as="geometry" />
        </mxCell>
        <mxCell id="9tDPQ-F5tBuBTvyauGK9-28" value="" style="ellipse;whiteSpace=wrap;html=1;aspect=fixed;strokeColor=#808080;fillColor=#555353;" parent="1" vertex="1">
          <mxGeometry x="634" y="419.85" width="30" height="30" as="geometry" />
        </mxCell>
        <mxCell id="9tDPQ-F5tBuBTvyauGK9-47" style="edgeStyle=orthogonalEdgeStyle;rounded=0;orthogonalLoop=1;jettySize=auto;html=1;exitX=0.5;exitY=0;exitDx=0;exitDy=0;entryX=0.5;entryY=0;entryDx=0;entryDy=0;" parent="1" source="9tDPQ-F5tBuBTvyauGK9-32" target="9tDPQ-F5tBuBTvyauGK9-35" edge="1">
          <mxGeometry relative="1" as="geometry" />
        </mxCell>
        <mxCell id="9tDPQ-F5tBuBTvyauGK9-48" style="edgeStyle=orthogonalEdgeStyle;rounded=0;orthogonalLoop=1;jettySize=auto;html=1;exitX=0.5;exitY=1;exitDx=0;exitDy=0;entryX=0.5;entryY=1;entryDx=0;entryDy=0;" parent="1" source="9tDPQ-F5tBuBTvyauGK9-32" target="9tDPQ-F5tBuBTvyauGK9-38" edge="1">
          <mxGeometry relative="1" as="geometry" />
        </mxCell>
        <mxCell id="9tDPQ-F5tBuBTvyauGK9-32" value="RESPONSE" style="rhombus;whiteSpace=wrap;html=1;" parent="1" vertex="1">
          <mxGeometry x="690" y="724.85" width="140" height="110" as="geometry" />
        </mxCell>
        <mxCell id="9tDPQ-F5tBuBTvyauGK9-49" style="edgeStyle=orthogonalEdgeStyle;rounded=0;orthogonalLoop=1;jettySize=auto;html=1;exitX=0;exitY=0.5;exitDx=0;exitDy=0;entryX=1;entryY=0.5;entryDx=0;entryDy=0;" parent="1" source="9tDPQ-F5tBuBTvyauGK9-35" target="9tDPQ-F5tBuBTvyauGK9-37" edge="1">
          <mxGeometry relative="1" as="geometry" />
        </mxCell>
        <mxCell id="9tDPQ-F5tBuBTvyauGK9-35" value="Text" style="rounded=1;whiteSpace=wrap;html=1;" parent="1" vertex="1">
          <mxGeometry x="500" y="724.85" width="120" height="40" as="geometry" />
        </mxCell>
        <mxCell id="9tDPQ-F5tBuBTvyauGK9-53" style="edgeStyle=orthogonalEdgeStyle;rounded=0;orthogonalLoop=1;jettySize=auto;html=1;exitX=0.5;exitY=1;exitDx=0;exitDy=0;entryX=0.5;entryY=0;entryDx=0;entryDy=0;" parent="1" source="9tDPQ-F5tBuBTvyauGK9-37" target="9tDPQ-F5tBuBTvyauGK9-42" edge="1">
          <mxGeometry relative="1" as="geometry" />
        </mxCell>
        <mxCell id="9tDPQ-F5tBuBTvyauGK9-37" value="Voice" style="rounded=1;whiteSpace=wrap;html=1;" parent="1" vertex="1">
          <mxGeometry x="200" y="724.85" width="120" height="40" as="geometry" />
        </mxCell>
        <mxCell id="9tDPQ-F5tBuBTvyauGK9-51" style="edgeStyle=orthogonalEdgeStyle;rounded=0;orthogonalLoop=1;jettySize=auto;html=1;exitX=0;exitY=0.5;exitDx=0;exitDy=0;entryX=1;entryY=0.5;entryDx=0;entryDy=0;" parent="1" source="9tDPQ-F5tBuBTvyauGK9-38" target="9tDPQ-F5tBuBTvyauGK9-44" edge="1">
          <mxGeometry relative="1" as="geometry" />
        </mxCell>
        <mxCell id="9tDPQ-F5tBuBTvyauGK9-38" value="Emotion" style="rounded=1;whiteSpace=wrap;html=1;" parent="1" vertex="1">
          <mxGeometry x="500" y="794.85" width="120" height="40" as="geometry" />
        </mxCell>
        <mxCell id="9tDPQ-F5tBuBTvyauGK9-42" value="visemes" style="rounded=1;whiteSpace=wrap;html=1;" parent="1" vertex="1">
          <mxGeometry x="200" y="794.85" width="120" height="40" as="geometry" />
        </mxCell>
        <mxCell id="9tDPQ-F5tBuBTvyauGK9-45" value="Speech-driven Animation" style="text;html=1;align=center;verticalAlign=middle;whiteSpace=wrap;rounded=0;" parent="1" vertex="1">
          <mxGeometry x="190" y="844.85" width="140" height="30" as="geometry" />
        </mxCell>
        <mxCell id="9tDPQ-F5tBuBTvyauGK9-54" value="AVATAR" style="shape=actor;whiteSpace=wrap;html=1;" parent="1" vertex="1">
          <mxGeometry x="43" y="714.85" width="80" height="130" as="geometry" />
        </mxCell>
        <mxCell id="9tDPQ-F5tBuBTvyauGK9-56" value="pyttsx3" style="text;html=1;align=center;verticalAlign=middle;whiteSpace=wrap;rounded=0;" parent="1" vertex="1">
          <mxGeometry x="230" y="684.85" width="60" height="30" as="geometry" />
        </mxCell>
        <mxCell id="9tDPQ-F5tBuBTvyauGK9-58" style="edgeStyle=orthogonalEdgeStyle;rounded=0;orthogonalLoop=1;jettySize=auto;html=1;exitX=0;exitY=0.5;exitDx=0;exitDy=0;entryX=0.882;entryY=0.228;entryDx=0;entryDy=0;entryPerimeter=0;" parent="1" source="9tDPQ-F5tBuBTvyauGK9-55" target="9tDPQ-F5tBuBTvyauGK9-54" edge="1">
          <mxGeometry relative="1" as="geometry" />
        </mxCell>
        <mxCell id="9tDPQ-F5tBuBTvyauGK9-60" value="WebApp Output" style="text;html=1;align=center;verticalAlign=middle;whiteSpace=wrap;rounded=0;" parent="1" vertex="1">
          <mxGeometry x="135" y="654.85" width="100" height="30" as="geometry" />
        </mxCell>
        <mxCell id="9tDPQ-F5tBuBTvyauGK9-62" value="&lt;b&gt;&lt;font style=&quot;font-size: 14px;&quot;&gt;BACKEND&lt;/font&gt;&lt;/b&gt;" style="text;html=1;align=center;verticalAlign=middle;whiteSpace=wrap;rounded=0;" parent="1" vertex="1">
          <mxGeometry x="760" y="170.00000000000003" width="100" height="30" as="geometry" />
        </mxCell>
        <mxCell id="9tDPQ-F5tBuBTvyauGK9-64" value="&lt;b&gt;&lt;font style=&quot;font-size: 14px;&quot;&gt;FRONTEND&lt;/font&gt;&lt;/b&gt;" style="text;html=1;align=center;verticalAlign=middle;whiteSpace=wrap;rounded=0;" parent="1" vertex="1">
          <mxGeometry x="40" y="170.00000000000003" width="100" height="30" as="geometry" />
        </mxCell>
        <mxCell id="lA94gcOte_OkTWc4to1x-3" value="Output" style="text;html=1;align=center;verticalAlign=middle;resizable=0;points=[];autosize=1;strokeColor=none;fillColor=none;" parent="1" vertex="1">
          <mxGeometry x="155" y="574.85" width="60" height="30" as="geometry" />
        </mxCell>
        <mxCell id="lA94gcOte_OkTWc4to1x-4" value="Action Command Driven System Output" style="rounded=1;whiteSpace=wrap;html=1;" parent="1" vertex="1">
          <mxGeometry x="30" y="614.85" width="310" height="40" as="geometry" />
        </mxCell>
        <mxCell id="lA94gcOte_OkTWc4to1x-6" value="" style="endArrow=classic;html=1;rounded=0;exitX=1;exitY=1;exitDx=0;exitDy=0;entryX=1;entryY=0.5;entryDx=0;entryDy=0;" parent="1" source="9tDPQ-F5tBuBTvyauGK9-28" target="lA94gcOte_OkTWc4to1x-4" edge="1">
          <mxGeometry width="50" height="50" relative="1" as="geometry">
            <mxPoint x="544" y="594.85" as="sourcePoint" />
            <mxPoint x="580" y="644.85" as="targetPoint" />
            <Array as="points">
              <mxPoint x="670" y="460" />
              <mxPoint x="670" y="635" />
              <mxPoint x="580" y="634.85" />
            </Array>
          </mxGeometry>
        </mxCell>
        <mxCell id="cdbhqoS1kuBSXF2WR8cu-1" value="" style="rounded=0;whiteSpace=wrap;html=1;" vertex="1" parent="1">
          <mxGeometry x="490" y="170" width="240" height="60" as="geometry" />
        </mxCell>
        <mxCell id="cdbhqoS1kuBSXF2WR8cu-9" style="edgeStyle=orthogonalEdgeStyle;rounded=0;orthogonalLoop=1;jettySize=auto;html=1;exitX=1;exitY=0.5;exitDx=0;exitDy=0;entryX=0;entryY=0.5;entryDx=0;entryDy=0;" edge="1" parent="1" source="cdbhqoS1kuBSXF2WR8cu-2" target="cdbhqoS1kuBSXF2WR8cu-6">
          <mxGeometry relative="1" as="geometry">
            <Array as="points">
              <mxPoint x="350" y="345" />
              <mxPoint x="350" y="200" />
            </Array>
          </mxGeometry>
        </mxCell>
        <mxCell id="cdbhqoS1kuBSXF2WR8cu-2" value="Personality Q" style="rounded=1;whiteSpace=wrap;html=1;" vertex="1" parent="1">
          <mxGeometry x="200" y="324.85" width="120" height="40" as="geometry" />
        </mxCell>
        <mxCell id="cdbhqoS1kuBSXF2WR8cu-5" value="Database" style="text;html=1;align=center;verticalAlign=middle;resizable=0;points=[];autosize=1;strokeColor=none;fillColor=none;" vertex="1" parent="1">
          <mxGeometry x="575" y="140" width="70" height="30" as="geometry" />
        </mxCell>
        <mxCell id="cdbhqoS1kuBSXF2WR8cu-6" value="User Info" style="rounded=1;whiteSpace=wrap;html=1;" vertex="1" parent="1">
          <mxGeometry x="504" y="180" width="66" height="40" as="geometry" />
        </mxCell>
        <mxCell id="cdbhqoS1kuBSXF2WR8cu-7" value="Face ID" style="rounded=1;whiteSpace=wrap;html=1;" vertex="1" parent="1">
          <mxGeometry x="577" y="180" width="66" height="40" as="geometry" />
        </mxCell>
        <mxCell id="cdbhqoS1kuBSXF2WR8cu-32" style="edgeStyle=orthogonalEdgeStyle;rounded=0;orthogonalLoop=1;jettySize=auto;html=1;exitX=0.5;exitY=1;exitDx=0;exitDy=0;entryX=1;entryY=0;entryDx=0;entryDy=0;" edge="1" parent="1" source="cdbhqoS1kuBSXF2WR8cu-8" target="9tDPQ-F5tBuBTvyauGK9-28">
          <mxGeometry relative="1" as="geometry" />
        </mxCell>
        <mxCell id="cdbhqoS1kuBSXF2WR8cu-8" value="Context" style="rounded=1;whiteSpace=wrap;html=1;" vertex="1" parent="1">
          <mxGeometry x="650" y="180" width="66" height="40" as="geometry" />
        </mxCell>
        <mxCell id="cdbhqoS1kuBSXF2WR8cu-17" value="" style="endArrow=classic;html=1;rounded=0;exitX=1;exitY=0.25;exitDx=0;exitDy=0;entryX=0.5;entryY=0;entryDx=0;entryDy=0;" edge="1" parent="1" source="9tDPQ-F5tBuBTvyauGK9-2" target="cdbhqoS1kuBSXF2WR8cu-7">
          <mxGeometry width="50" height="50" relative="1" as="geometry">
            <mxPoint x="370" y="370" as="sourcePoint" />
            <mxPoint x="420" y="320" as="targetPoint" />
            <Array as="points">
              <mxPoint x="350" y="385" />
              <mxPoint x="370" y="385" />
              <mxPoint x="370" y="250" />
              <mxPoint x="370" y="160" />
              <mxPoint x="520" y="160" />
            </Array>
          </mxGeometry>
        </mxCell>
        <mxCell id="cdbhqoS1kuBSXF2WR8cu-18" style="edgeStyle=orthogonalEdgeStyle;rounded=0;orthogonalLoop=1;jettySize=auto;html=1;exitX=0.5;exitY=1;exitDx=0;exitDy=0;entryX=0.5;entryY=0.172;entryDx=0;entryDy=0;entryPerimeter=0;" edge="1" parent="1" source="cdbhqoS1kuBSXF2WR8cu-1" target="9tDPQ-F5tBuBTvyauGK9-16">
          <mxGeometry relative="1" as="geometry" />
        </mxCell>
        <mxCell id="cdbhqoS1kuBSXF2WR8cu-20" value="" style="endArrow=none;dashed=1;html=1;rounded=0;jumpSize=6;strokeWidth=2;curved=1;" edge="1" parent="1">
          <mxGeometry width="50" height="50" relative="1" as="geometry">
            <mxPoint x="440" y="923.8788248697916" as="sourcePoint" />
            <mxPoint x="440" y="120" as="targetPoint" />
          </mxGeometry>
        </mxCell>
        <mxCell id="cdbhqoS1kuBSXF2WR8cu-21" value="" style="endArrow=classic;html=1;rounded=0;entryX=0;entryY=0.5;entryDx=0;entryDy=0;" edge="1" parent="1" target="cdbhqoS1kuBSXF2WR8cu-2">
          <mxGeometry width="50" height="50" relative="1" as="geometry">
            <mxPoint x="120" y="400" as="sourcePoint" />
            <mxPoint x="190" y="374.85" as="targetPoint" />
          </mxGeometry>
        </mxCell>
        <mxCell id="cdbhqoS1kuBSXF2WR8cu-24" style="edgeStyle=orthogonalEdgeStyle;rounded=0;orthogonalLoop=1;jettySize=auto;html=1;exitX=0.5;exitY=0;exitDx=0;exitDy=0;entryX=1;entryY=0.5;entryDx=0;entryDy=0;" edge="1" parent="1" source="9tDPQ-F5tBuBTvyauGK9-24" target="cdbhqoS1kuBSXF2WR8cu-8">
          <mxGeometry relative="1" as="geometry" />
        </mxCell>
        <mxCell id="cdbhqoS1kuBSXF2WR8cu-26" value="" style="endArrow=none;html=1;rounded=0;exitX=1;exitY=0.5;exitDx=0;exitDy=0;entryX=0;entryY=0.5;entryDx=0;entryDy=0;" edge="1" parent="1" source="cdbhqoS1kuBSXF2WR8cu-6" target="cdbhqoS1kuBSXF2WR8cu-7">
          <mxGeometry width="50" height="50" relative="1" as="geometry">
            <mxPoint x="504" y="300" as="sourcePoint" />
            <mxPoint x="554" y="250" as="targetPoint" />
          </mxGeometry>
        </mxCell>
        <mxCell id="cdbhqoS1kuBSXF2WR8cu-30" value="" style="endArrow=none;html=1;rounded=0;entryX=0;entryY=0.5;entryDx=0;entryDy=0;exitX=1;exitY=0.5;exitDx=0;exitDy=0;" edge="1" parent="1" source="cdbhqoS1kuBSXF2WR8cu-7" target="cdbhqoS1kuBSXF2WR8cu-8">
          <mxGeometry width="50" height="50" relative="1" as="geometry">
            <mxPoint x="520" y="340" as="sourcePoint" />
            <mxPoint x="570" y="290" as="targetPoint" />
          </mxGeometry>
        </mxCell>
      </root>
    </mxGraphModel>
  </diagram>
</mxfile>
